<?xml version="1.0" encoding="UTF-8" standalone="no"?>
<svg
   xmlns:dc="http://purl.org/dc/elements/1.1/"
   xmlns:cc="http://creativecommons.org/ns#"
   xmlns:rdf="http://www.w3.org/1999/02/22-rdf-syntax-ns#"
   xmlns:svg="http://www.w3.org/2000/svg"
   xmlns="http://www.w3.org/2000/svg"
   viewBox="0 0 900 460.64999"
   height="460.64999"
   width="900"
   xml:space="preserve"
   version="1.1"
   id="svg2"><metadata
     id="metadata8"><rdf:RDF><cc:Work
         rdf:about=""><dc:format>image/svg+xml</dc:format><dc:type
           rdf:resource="http://purl.org/dc/dcmitype/StillImage" /></cc:Work></rdf:RDF></metadata><defs
     id="defs6"><clipPath
       id="clipPath16"
       clipPathUnits="userSpaceOnUse"><path
         style="clip-rule:evenodd"
         id="path18"
         d="m 0,6.1035e-5 720,0 0,368.519998965 -720,0 L 0,6.1035e-5 Z" /></clipPath><clipPath
       id="clipPath30"
       clipPathUnits="userSpaceOnUse"><path
         style="clip-rule:evenodd"
         id="path32"
         d="M 1.0729e-5,0 720.00001,0 l 0,368.52 -719.999999271,0 0,-368.52 z" /></clipPath><clipPath
       id="clipPath42"
       clipPathUnits="userSpaceOnUse"><path
         style="clip-rule:evenodd"
         id="path44"
         d="M 1.0729e-5,0 720.00001,0 l 0,368.52 -719.999999271,0 0,-368.52 z" /></clipPath><clipPath
       id="clipPath54"
       clipPathUnits="userSpaceOnUse"><path
         style="clip-rule:evenodd"
         id="path56"
         d="M 1.0729e-5,0 720.00001,0 l 0,368.52 -719.999999271,0 0,-368.52 z" /></clipPath><clipPath
       id="clipPath66"
       clipPathUnits="userSpaceOnUse"><path
         style="clip-rule:evenodd"
         id="path68"
         d="M 1.0729e-5,0 720.00001,0 l 0,368.52 -719.999999271,0 0,-368.52 z" /></clipPath><clipPath
       id="clipPath80"
       clipPathUnits="userSpaceOnUse"><path
         style="clip-rule:evenodd"
         id="path82"
         d="M 1.0729e-5,0 720.00001,0 l 0,368.52 -719.999999271,0 0,-368.52 z" /></clipPath><clipPath
       id="clipPath92"
       clipPathUnits="userSpaceOnUse"><path
         style="clip-rule:evenodd"
         id="path94"
         d="M 1.0729e-5,0 720.00001,0 l 0,368.52 -719.999999271,0 0,-368.52 z" /></clipPath><clipPath
       id="clipPath106"
       clipPathUnits="userSpaceOnUse"><path
         style="clip-rule:evenodd"
         id="path108"
         d="M 1.0729e-5,0 720.00001,0 l 0,368.52 -719.999999271,0 0,-368.52 z" /></clipPath><clipPath
       id="clipPath118"
       clipPathUnits="userSpaceOnUse"><path
         style="clip-rule:evenodd"
         id="path120"
         d="M 1.0729e-5,0 720.00001,0 l 0,368.52 -719.999999271,0 0,-368.52 z" /></clipPath><clipPath
       id="clipPath130"
       clipPathUnits="userSpaceOnUse"><path
         style="clip-rule:evenodd"
         id="path132"
         d="M 1.0729e-5,0 720.00001,0 l 0,368.52 -719.999999271,0 0,-368.52 z" /></clipPath><clipPath
       id="clipPath142"
       clipPathUnits="userSpaceOnUse"><path
         style="clip-rule:evenodd"
         id="path144"
         d="M 1.0729e-5,0 720.00001,0 l 0,368.52 -719.999999271,0 0,-368.52 z" /></clipPath><clipPath
       id="clipPath156"
       clipPathUnits="userSpaceOnUse"><path
         style="clip-rule:evenodd"
         id="path158"
         d="M 1.0729e-5,0 720.00001,0 l 0,368.52 -719.999999271,0 0,-368.52 z" /></clipPath><clipPath
       id="clipPath168"
       clipPathUnits="userSpaceOnUse"><path
         style="clip-rule:evenodd"
         id="path170"
         d="M 1.0729e-5,0 720.00001,0 l 0,368.52 -719.999999271,0 0,-368.52 z" /></clipPath><clipPath
       id="clipPath180"
       clipPathUnits="userSpaceOnUse"><path
         style="clip-rule:evenodd"
         id="path182"
         d="M 1.0729e-5,0 720.00001,0 l 0,368.52 -719.999999271,0 0,-368.52 z" /></clipPath><clipPath
       id="clipPath192"
       clipPathUnits="userSpaceOnUse"><path
         style="clip-rule:evenodd"
         id="path194"
         d="M 1.0729e-5,0 720.00001,0 l 0,368.52 -719.999999271,0 0,-368.52 z" /></clipPath><clipPath
       id="clipPath206"
       clipPathUnits="userSpaceOnUse"><path
         style="clip-rule:evenodd"
         id="path208"
         d="M 1.0729e-5,0 720.00001,0 l 0,368.52 -719.999999271,0 0,-368.52 z" /></clipPath><clipPath
       id="clipPath218"
       clipPathUnits="userSpaceOnUse"><path
         style="clip-rule:evenodd"
         id="path220"
         d="M 1.0729e-5,0 720.00001,0 l 0,368.52 -719.999999271,0 0,-368.52 z" /></clipPath><clipPath
       id="clipPath232"
       clipPathUnits="userSpaceOnUse"><path
         style="clip-rule:evenodd"
         id="path234"
         d="M 1.0729e-5,0 720.00001,0 l 0,368.52 -719.999999271,0 0,-368.52 z" /></clipPath><clipPath
       id="clipPath244"
       clipPathUnits="userSpaceOnUse"><path
         style="clip-rule:evenodd"
         id="path246"
         d="M 1.0729e-5,0 720.00001,0 l 0,368.52 -719.999999271,0 0,-368.52 z" /></clipPath><clipPath
       id="clipPath256"
       clipPathUnits="userSpaceOnUse"><path
         style="clip-rule:evenodd"
         id="path258"
         d="M 1.0729e-5,0 720.00001,0 l 0,368.52 -719.999999271,0 0,-368.52 z" /></clipPath><clipPath
       id="clipPath268"
       clipPathUnits="userSpaceOnUse"><path
         style="clip-rule:evenodd"
         id="path270"
         d="M 1.0729e-5,0 720.00001,0 l 0,368.52 -719.999999271,0 0,-368.52 z" /></clipPath><clipPath
       id="clipPath286"
       clipPathUnits="userSpaceOnUse"><path
         style="clip-rule:evenodd"
         id="path288"
         d="M 1.0729e-5,0 720.00001,0 l 0,368.52 -719.999999271,0 0,-368.52 z" /></clipPath><clipPath
       id="clipPath298"
       clipPathUnits="userSpaceOnUse"><path
         style="clip-rule:evenodd"
         id="path300"
         d="M 1.0729e-5,0 720.00001,0 l 0,368.52 -719.999999271,0 0,-368.52 z" /></clipPath><clipPath
       id="clipPath310"
       clipPathUnits="userSpaceOnUse"><path
         style="clip-rule:evenodd"
         id="path312"
         d="M 1.0729e-5,0 720.00001,0 l 0,368.52 -719.999999271,0 0,-368.52 z" /></clipPath><clipPath
       id="clipPath322"
       clipPathUnits="userSpaceOnUse"><path
         style="clip-rule:evenodd"
         id="path324"
         d="M 1.0729e-5,0 720.00001,0 l 0,368.52 -719.999999271,0 0,-368.52 z" /></clipPath><clipPath
       id="clipPath334"
       clipPathUnits="userSpaceOnUse"><path
         style="clip-rule:evenodd"
         id="path336"
         d="M 1.0729e-5,0 720.00001,0 l 0,368.52 -719.999999271,0 0,-368.52 z" /></clipPath><clipPath
       id="clipPath346"
       clipPathUnits="userSpaceOnUse"><path
         style="clip-rule:evenodd"
         id="path348"
         d="M 1.0729e-5,0 720.00001,0 l 0,368.52 -719.999999271,0 0,-368.52 z" /></clipPath><clipPath
       id="clipPath366"
       clipPathUnits="userSpaceOnUse"><path
         style="clip-rule:evenodd"
         id="path368"
         d="M 1.0729e-5,0 720.00001,0 l 0,368.52 -719.999999271,0 0,-368.52 z" /></clipPath><clipPath
       id="clipPath392"
       clipPathUnits="userSpaceOnUse"><path
         style="clip-rule:evenodd"
         id="path394"
         d="M 1.0729e-5,0 720.00001,0 l 0,368.52 -719.999999271,0 0,-368.52 z" /></clipPath><clipPath
       id="clipPath404"
       clipPathUnits="userSpaceOnUse"><path
         style="clip-rule:evenodd"
         id="path406"
         d="M 1.0729e-5,0 720.00001,0 l 0,368.52 -719.999999271,0 0,-368.52 z" /></clipPath><clipPath
       id="clipPath416"
       clipPathUnits="userSpaceOnUse"><path
         style="clip-rule:evenodd"
         id="path418"
         d="M 1.0729e-5,0 720.00001,0 l 0,368.52 -719.999999271,0 0,-368.52 z" /></clipPath></defs><g
     transform="matrix(1.25,0,0,-1.25,0,460.65)"
     id="g10"><g
       id="g12"><g
         clip-path="url(#clipPath16)"
         id="g14"><path
           id="path20"
           style="fill:#ffffff;fill-opacity:1;fill-rule:evenodd;stroke:none"
           d="m 0,3.0518e-5 720,0 0,368.519999482 -720,0 L 0,3.0518e-5 Z" /></g></g><path
       id="path22"
       style="fill:#525e66;fill-opacity:1;fill-rule:nonzero;stroke:none"
       d="m 35.52,252.54 0,-184.949 -3,0 0,184.949 3,0 z m 3,-183.449 -4.5,-9 -4.5,9 9,0 z" /><path
       id="path24"
       style="fill:none;stroke:#de5299;stroke-width:2.27999997;stroke-linecap:butt;stroke-linejoin:round;stroke-miterlimit:10;stroke-dasharray:none;stroke-opacity:1"
       d="m 152.34,238.04 c 0,2.51 2.03,4.54 4.54,4.54 l 116.2,0 c 2.51,0 4.54,-2.03 4.54,-4.54 l 0,-18.16 c 0,-2.51 -2.03,-4.54 -4.54,-4.54 l -116.2,0 c -2.51,0 -4.54,2.03 -4.54,4.54 l 0,18.16 z" /><g
       id="g26"><g
         clip-path="url(#clipPath30)"
         id="g28"><text
           id="text34"
           style="font-variant:normal;font-weight:normal;font-size:20.04000092px;font-family:Corbel;-inkscape-font-specification:Corbel;writing-mode:lr-tb;fill:#000000;fill-opacity:1;fill-rule:nonzero;stroke:none"
           transform="matrix(1,0,0,-1,167.5,222.14)"><tspan
             id="tspan36"
             y="0"
             x="0 11.523 21.50292 31.322519 42.003841">Read </tspan></text>
</g></g><g
       id="g38"><g
         clip-path="url(#clipPath42)"
         id="g40"><text
           id="text46"
           style="font-variant:normal;font-weight:bold;font-size:20.04000092px;font-family:Corbel;-inkscape-font-specification:Corbel-Bold;writing-mode:lr-tb;fill:#000000;fill-opacity:1;fill-rule:nonzero;stroke:none"
           transform="matrix(1,0,0,-1,213.46,222.14)"><tspan
             id="tspan48"
             y="0"
             x="0 10.319999">a </tspan></text>
</g></g><g
       id="g50"><g
         clip-path="url(#clipPath54)"
         id="g52"><text
           id="text58"
           style="font-variant:normal;font-weight:bold;font-size:20.04000092px;font-family:Arial;-inkscape-font-specification:Arial-BoldMT;writing-mode:lr-tb;fill:#000000;fill-opacity:1;fill-rule:nonzero;stroke:none"
           transform="matrix(1,0,0,-1,227.86,222.14)"><tspan
             id="tspan60"
             y="0"
             x="0">→</tspan></text>
</g></g><g
       id="g62"><g
         clip-path="url(#clipPath66)"
         id="g64"><text
           id="text70"
           style="font-variant:normal;font-weight:bold;font-size:20.04000092px;font-family:Corbel;-inkscape-font-specification:Corbel-Bold;writing-mode:lr-tb;fill:#000000;fill-opacity:1;fill-rule:nonzero;stroke:none"
           transform="matrix(1,0,0,-1,252,222.14)"><tspan
             id="tspan72"
             y="0"
             x="0">0</tspan></text>
</g></g><path
       id="path74"
       style="fill:none;stroke:#de5299;stroke-width:2.27999997;stroke-linecap:butt;stroke-linejoin:round;stroke-miterlimit:10;stroke-dasharray:none;stroke-opacity:1"
       d="m 152.34,203.96 c 0,2.51 2.03,4.54 4.54,4.54 l 169.84,0 c 2.51,0 4.54,-2.03 4.54,-4.54 l 0,-18.16 c 0,-2.51 -2.03,-4.54 -4.54,-4.54 l -169.84,0 c -2.51,0 -4.54,2.03 -4.54,4.54 l 0,18.16 z" /><g
       id="g76"><g
         clip-path="url(#clipPath80)"
         id="g78"><text
           id="text84"
           style="font-variant:normal;font-weight:normal;font-size:20.04000092px;font-family:Corbel;-inkscape-font-specification:Corbel;writing-mode:lr-tb;fill:#000000;fill-opacity:1;fill-rule:nonzero;stroke:none"
           transform="matrix(1,0,0,-1,167.28,188.16)"><tspan
             id="tspan86"
             y="0"
             x="0 11.80356 22.48488 38.997841 49.63908 60.019798 66.973679 76.953598">Compute </tspan></text>
</g></g><g
       id="g88"><g
         clip-path="url(#clipPath92)"
         id="g90"><text
           id="text96"
           style="font-variant:normal;font-weight:bold;font-size:20.04000092px;font-family:Corbel;-inkscape-font-specification:Corbel-Bold;writing-mode:lr-tb;fill:#000000;fill-opacity:1;fill-rule:nonzero;stroke:none"
           transform="matrix(1,0,0,-1,248.3,188.16)"><tspan
             id="tspan98"
             y="0"
             x="0 10.3206 14.44884 25.00992 29.03796 39.358559 43.326481 53.887562 58.0158">a = a + 1</tspan></text>
</g></g><path
       id="path100"
       style="fill:none;stroke:#de5299;stroke-width:2.27999997;stroke-linecap:butt;stroke-linejoin:round;stroke-miterlimit:10;stroke-dasharray:none;stroke-opacity:1"
       d="m 152.34,137.24 c 0,2.51 2.03,4.54 4.54,4.54 l 122.2,0 c 2.51,0 4.54,-2.03 4.54,-4.54 l 0,-18.16 c 0,-2.51 -2.03,-4.54 -4.54,-4.54 l -122.2,0 c -2.51,0 -4.54,2.03 -4.54,4.54 l 0,18.16 z" /><g
       id="g102"><g
         clip-path="url(#clipPath106)"
         id="g104"><text
           id="text110"
           style="font-variant:normal;font-weight:normal;font-size:20.04000092px;font-family:Corbel;-inkscape-font-specification:Corbel;writing-mode:lr-tb;fill:#000000;fill-opacity:1;fill-rule:nonzero;stroke:none"
           transform="matrix(1,0,0,-1,160.87,121.3)"><tspan
             id="tspan112"
             y="0"
             x="0 17.67528 24.38868 29.03796 35.99184 45.97176">Write </tspan></text>
</g></g><g
       id="g114"><g
         clip-path="url(#clipPath118)"
         id="g116"><text
           id="text122"
           style="font-variant:normal;font-weight:bold;font-size:20.04000092px;font-family:Corbel;-inkscape-font-specification:Corbel-Bold;writing-mode:lr-tb;fill:#000000;fill-opacity:1;fill-rule:nonzero;stroke:none"
           transform="matrix(1,0,0,-1,210.91,121.3)"><tspan
             id="tspan124"
             y="0"
             x="0 10.319999">a </tspan></text>
</g></g><g
       id="g126"><g
         clip-path="url(#clipPath130)"
         id="g128"><text
           id="text134"
           style="font-variant:normal;font-weight:bold;font-size:20.04000092px;font-family:Arial;-inkscape-font-specification:Arial-BoldMT;writing-mode:lr-tb;fill:#000000;fill-opacity:1;fill-rule:nonzero;stroke:none"
           transform="matrix(1,0,0,-1,225.19,121.3)"><tspan
             id="tspan136"
             y="0"
             x="0">←</tspan></text>
</g></g><g
       id="g138"><g
         clip-path="url(#clipPath142)"
         id="g140"><text
           id="text146"
           style="font-variant:normal;font-weight:bold;font-size:20.04000092px;font-family:Corbel;-inkscape-font-specification:Corbel-Bold;writing-mode:lr-tb;fill:#000000;fill-opacity:1;fill-rule:nonzero;stroke:none"
           transform="matrix(1,0,0,-1,249.31,121.3)"><tspan
             id="tspan148"
             y="0"
             x="0">1</tspan></text>
</g></g><path
       id="path150"
       style="fill:none;stroke:#00b0f0;stroke-width:2.27999997;stroke-linecap:butt;stroke-linejoin:round;stroke-miterlimit:10;stroke-dasharray:none;stroke-opacity:1"
       d="m 415.62,204.44 c 0,2.51 2.03,4.54 4.54,4.54 l 116.08,0 c 2.51,0 4.54,-2.03 4.54,-4.54 l 0,-18.16 c 0,-2.51 -2.03,-4.54 -4.54,-4.54 l -116.08,0 c -2.51,0 -4.54,2.03 -4.54,4.54 l 0,18.16 z" /><g
       id="g152"><g
         clip-path="url(#clipPath156)"
         id="g154"><text
           id="text160"
           style="font-variant:normal;font-weight:normal;font-size:20.04000092px;font-family:Corbel;-inkscape-font-specification:Corbel;writing-mode:lr-tb;fill:#000000;fill-opacity:1;fill-rule:nonzero;stroke:none"
           transform="matrix(1,0,0,-1,430.75,188.52)"><tspan
             id="tspan162"
             y="0"
             x="0 11.523 21.50292 31.322519 42.003841">Read </tspan></text>
</g></g><g
       id="g164"><g
         clip-path="url(#clipPath168)"
         id="g166"><text
           id="text172"
           style="font-variant:normal;font-weight:bold;font-size:20.04000092px;font-family:Corbel;-inkscape-font-specification:Corbel-Bold;writing-mode:lr-tb;fill:#000000;fill-opacity:1;fill-rule:nonzero;stroke:none"
           transform="matrix(1,0,0,-1,476.71,188.52)"><tspan
             id="tspan174"
             y="0"
             x="0 10.319999">a </tspan></text>
</g></g><g
       id="g176"><g
         clip-path="url(#clipPath180)"
         id="g178"><text
           id="text184"
           style="font-variant:normal;font-weight:bold;font-size:20.04000092px;font-family:Arial;-inkscape-font-specification:Arial-BoldMT;writing-mode:lr-tb;fill:#000000;fill-opacity:1;fill-rule:nonzero;stroke:none"
           transform="matrix(1,0,0,-1,491.11,188.52)"><tspan
             id="tspan186"
             y="0"
             x="0">→</tspan></text>
</g></g><g
       id="g188"><g
         clip-path="url(#clipPath192)"
         id="g190"><text
           id="text196"
           style="font-variant:normal;font-weight:bold;font-size:20.04000092px;font-family:Corbel;-inkscape-font-specification:Corbel-Bold;writing-mode:lr-tb;fill:#000000;fill-opacity:1;fill-rule:nonzero;stroke:none"
           transform="matrix(1,0,0,-1,515.23,188.52)"><tspan
             id="tspan198"
             y="0"
             x="0">0</tspan></text>
</g></g><path
       id="path200"
       style="fill:none;stroke:#00b0f0;stroke-width:2.27999997;stroke-linecap:butt;stroke-linejoin:round;stroke-miterlimit:10;stroke-dasharray:none;stroke-opacity:1"
       d="m 415.62,170.74 c 0,2.5 2.02,4.52 4.52,4.52 l 169.88,0 c 2.5,0 4.52,-2.02 4.52,-4.52 l 0,-18.08 c 0,-2.5 -2.02,-4.52 -4.52,-4.52 l -169.88,0 c -2.5,0 -4.52,2.02 -4.52,4.52 l 0,18.08 z" /><g
       id="g202"><g
         clip-path="url(#clipPath206)"
         id="g204"><text
           id="text210"
           style="font-variant:normal;font-weight:normal;font-size:20.04000092px;font-family:Corbel;-inkscape-font-specification:Corbel;writing-mode:lr-tb;fill:#000000;fill-opacity:1;fill-rule:nonzero;stroke:none"
           transform="matrix(1,0,0,-1,430.54,154.99)"><tspan
             id="tspan212"
             y="0"
             x="0 11.80356 22.48488 38.997841 49.63908 60.019798 66.973679 76.953598">Compute </tspan></text>
</g></g><g
       id="g214"><g
         clip-path="url(#clipPath218)"
         id="g216"><text
           id="text222"
           style="font-variant:normal;font-weight:bold;font-size:20.04000092px;font-family:Corbel;-inkscape-font-specification:Corbel-Bold;writing-mode:lr-tb;fill:#000000;fill-opacity:1;fill-rule:nonzero;stroke:none"
           transform="matrix(1,0,0,-1,511.54,154.99)"><tspan
             id="tspan224"
             y="0"
             x="0 10.3206 14.44884 25.00992 29.03796 39.358559 43.326481 53.887562 58.0158">a = a + 1</tspan></text>
</g></g><path
       id="path226"
       style="fill:none;stroke:#00b0f0;stroke-width:2.27999997;stroke-linecap:butt;stroke-linejoin:round;stroke-miterlimit:10;stroke-dasharray:none;stroke-opacity:1"
       d="m 415.62,103.18 c 0,2.5 2.02,4.52 4.52,4.52 l 122.12,0 c 2.5,0 4.52,-2.02 4.52,-4.52 l 0,-18.08 c 0,-2.496 -2.02,-4.52 -4.52,-4.52 l -122.12,0 c -2.5,0 -4.52,2.024 -4.52,4.52 l 0,18.08 z" /><g
       id="g228"><g
         clip-path="url(#clipPath232)"
         id="g230"><text
           id="text236"
           style="font-variant:normal;font-weight:normal;font-size:20.06399918px;font-family:Corbel;-inkscape-font-specification:Corbel;writing-mode:lr-tb;fill:#000000;fill-opacity:1;fill-rule:nonzero;stroke:none"
           transform="matrix(1,0,0,-1,424.1,87.264)"><tspan
             id="tspan238"
             y="0"
             x="0 17.696447 24.417889 29.072737 36.034943 45.966625">Write </tspan></text>
</g></g><g
       id="g240"><g
         clip-path="url(#clipPath244)"
         id="g242"><text
           id="text248"
           style="font-variant:normal;font-weight:bold;font-size:20.06399918px;font-family:Corbel;-inkscape-font-specification:Corbel-Bold;writing-mode:lr-tb;fill:#000000;fill-opacity:1;fill-rule:nonzero;stroke:none"
           transform="matrix(1,0,0,-1,474.17,87.264)"><tspan
             id="tspan250"
             y="0"
             x="0 10.31996">a </tspan></text>
</g></g><g
       id="g252"><g
         clip-path="url(#clipPath256)"
         id="g254"><text
           id="text260"
           style="font-variant:normal;font-weight:bold;font-size:20.06399918px;font-family:Arial;-inkscape-font-specification:Arial-BoldMT;writing-mode:lr-tb;fill:#000000;fill-opacity:1;fill-rule:nonzero;stroke:none"
           transform="matrix(1,0,0,-1,488.45,87.264)"><tspan
             id="tspan262"
             y="0"
             x="0">←</tspan></text>
</g></g><g
       id="g264"><g
         clip-path="url(#clipPath268)"
         id="g266"><text
           id="text272"
           style="font-variant:normal;font-weight:bold;font-size:20.06399918px;font-family:Corbel;-inkscape-font-specification:Corbel-Bold;writing-mode:lr-tb;fill:#000000;fill-opacity:1;fill-rule:nonzero;stroke:none"
           transform="matrix(1,0,0,-1,512.57,87.264)"><tspan
             id="tspan274"
             y="0"
             x="0">1</tspan></text>
</g></g><path
       id="path276"
       style="fill:#525e66;fill-opacity:1;fill-rule:nonzero;stroke:none"
       d="m 355.73,298.03 -133.25,-45.26 0.66,-1.94 133.25,45.26 -0.66,1.94 z m -132.94,-43 -4.81,-4.87 6.78,-0.93 -1.97,5.8 z" /><path
       id="path278"
       style="fill:#525e66;fill-opacity:1;fill-rule:nonzero;stroke:none"
       d="m 356.66,297.91 117.91,-78.31 -1.13,-1.7 -117.9,78.31 1.12,1.7 z m 118.18,-76.04 3.41,-5.94 -6.79,0.84 3.38,5.1 z" /><path
       id="path280"
       style="fill:none;stroke:#ff0000;stroke-width:2.27999997;stroke-linecap:butt;stroke-linejoin:round;stroke-miterlimit:10;stroke-dasharray:none;stroke-opacity:1"
       d="m 520.98,349.96 c 0,7.1 5.76,12.86 12.86,12.86 l 164.84,0 c 7.1,0 12.86,-5.76 12.86,-12.86 l 0,-51.44 c 0,-7.1 -5.76,-12.86 -12.86,-12.86 l -164.84,0 c -7.1,0 -12.86,5.76 -12.86,12.86 l 0,51.44 z" /><g
       id="g282"><g
         clip-path="url(#clipPath286)"
         id="g284"><text
           id="text290"
           style="font-variant:normal;font-weight:normal;font-size:20.06399918px;font-family:Corbel;-inkscape-font-specification:Corbel;writing-mode:lr-tb;fill:#000000;fill-opacity:1;fill-rule:nonzero;stroke:none"
           transform="matrix(1,0,0,-1,531.96,341.59)"><tspan
             id="tspan292"
             y="0"
             x="0 11.075328 21.749376 31.580736 38.302177 48.294048 58.927967 62.940769 72.130081 81.961441 88.682877 93.33773 103.16909 113.92339 118.57824 128.57011">Shared variable </tspan></text>
</g></g><g
       id="g294"><g
         clip-path="url(#clipPath298)"
         id="g296"><text
           id="text302"
           style="font-variant:normal;font-weight:bold;font-size:20.06399918px;font-family:Corbel;-inkscape-font-specification:Corbel-Bold;writing-mode:lr-tb;fill:#000000;fill-opacity:1;fill-rule:nonzero;stroke:none"
           transform="matrix(1,0,0,-1,664.32,341.59)"><tspan
             id="tspan304"
             y="0"
             x="0">a</tspan></text>
</g></g><g
       id="g306"><g
         clip-path="url(#clipPath310)"
         id="g308"><text
           id="text314"
           style="font-variant:normal;font-weight:normal;font-size:20.04000092px;font-family:Corbel;-inkscape-font-specification:Corbel;writing-mode:lr-tb;fill:#000000;fill-opacity:1;fill-rule:nonzero;stroke:none"
           transform="matrix(1,0,0,-1,531.96,317.57)"><tspan
             id="tspan316"
             y="0"
             x="0 14.26848 18.917761 25.871639 36.573002 40.420681 49.679161 59.49876 64.148041 74.528763 84.508682">with value </tspan></text>
</g></g><g
       id="g318"><g
         clip-path="url(#clipPath322)"
         id="g320"><text
           id="text326"
           style="font-variant:normal;font-weight:bold;font-size:20.04000092px;font-family:Corbel;-inkscape-font-specification:Corbel-Bold;writing-mode:lr-tb;fill:#000000;fill-opacity:1;fill-rule:nonzero;stroke:none"
           transform="matrix(1,0,0,-1,620.4,317.57)"><tspan
             id="tspan328"
             y="0"
             x="0">0</tspan></text>
</g></g><g
       id="g330"><g
         clip-path="url(#clipPath334)"
         id="g332"><text
           id="text338"
           style="font-variant:normal;font-weight:normal;font-size:20.04000092px;font-family:Corbel;-inkscape-font-specification:Corbel;writing-mode:lr-tb;fill:#000000;fill-opacity:1;fill-rule:nonzero;stroke:none"
           transform="matrix(1,0,0,-1,634.68,317.57)"><tspan
             id="tspan340"
             y="0"
             x="0 10.68132 20.66124 27.03396 37.715279 44.42868 54.4086">before </tspan></text>
</g></g><g
       id="g342"><g
         clip-path="url(#clipPath346)"
         id="g344"><text
           id="text350"
           style="font-variant:normal;font-weight:normal;font-size:20.04000092px;font-family:Corbel;-inkscape-font-specification:Corbel;writing-mode:lr-tb;fill:#000000;fill-opacity:1;fill-rule:nonzero;stroke:none"
           transform="matrix(1,0,0,-1,531.96,293.57)"><tspan
             id="tspan352"
             y="0"
             x="0 6.9538798 17.61516 27.595079 31.6632 42.30444 52.124039 58.877522 68.697121 73.346397 78.055801 88.035721 92.684998 96.292198 103.0056 112.98552 123.62676 128.27605 138.95737">the parallel region</tspan></text>
</g></g><path
       id="path354"
       style="fill:#525e66;fill-opacity:1;fill-rule:nonzero;stroke:none"
       d="m 215.42,112.34 142.43,-68.346 -0.88,-1.84 -142.43,68.346 0.88,1.84 z m 142.39,-66.066 4.19,-5.406 -6.84,-0.111 2.65,5.517 z" /><path
       id="path356"
       style="fill:#525e66;fill-opacity:1;fill-rule:nonzero;stroke:none"
       d="M 480.86,77.118 366.58,43.29 l 0.58,-1.957 114.28,33.829 -0.58,1.956 z m -113.88,-31.583 -5,-4.671 6.74,-1.197 -1.74,5.868 z" /><path
       id="path358"
       style="fill:#525e66;fill-opacity:1;fill-rule:nonzero;stroke:none"
       d="m 357.12,362.82 0,-60.61 -2.04,0 0,60.61 2.04,0 z m 2.04,-59.59 -3.06,-6.12 -3.06,6.12 6.12,0 z" /><path
       id="path360"
       style="fill:#525e66;fill-opacity:1;fill-rule:nonzero;stroke:none"
       d="m 363,40.86 0,-27.761 -2.04,0 0,27.761 2.04,0 z m 2.04,-26.741 -3.06,-6.1196 -3.06,6.1196 6.12,0 z" /><g
       id="g362"><g
         clip-path="url(#clipPath366)"
         id="g364"><text
           id="text370"
           style="font-variant:normal;font-weight:normal;font-size:24px;font-family:Corbel;-inkscape-font-specification:Corbel;writing-mode:lr-tb;fill:#000000;fill-opacity:1;fill-rule:nonzero;stroke:none"
           transform="matrix(1,0,0,-1,23.136,262.99)"><tspan
             id="tspan372"
             y="0"
             x="0 13.32 18.888 38.784">Time</tspan></text>
</g></g><path
       id="path374"
       style="fill:none;stroke:#525e66;stroke-width:0.72000003;stroke-linecap:butt;stroke-linejoin:round;stroke-miterlimit:10;stroke-dasharray:none;stroke-opacity:1"
       d="m 51.84,212.28 584.48,0" /><path
       id="path376"
       style="fill:none;stroke:#525e66;stroke-width:0.72000003;stroke-linecap:butt;stroke-linejoin:round;stroke-miterlimit:10;stroke-dasharray:none;stroke-opacity:1"
       d="m 51.84,178.92 584.48,0" /><path
       id="path378"
       style="fill:none;stroke:#525e66;stroke-width:0.72000003;stroke-linecap:butt;stroke-linejoin:round;stroke-miterlimit:10;stroke-dasharray:none;stroke-opacity:1"
       d="m 51.84,144.96 584.48,0" /><path
       id="path380"
       style="fill:none;stroke:#525e66;stroke-width:0.72000003;stroke-linecap:butt;stroke-linejoin:round;stroke-miterlimit:10;stroke-dasharray:none;stroke-opacity:1"
       d="m 51.84,78 584.48,0" /><path
       id="path382"
       style="fill:none;stroke:#525e66;stroke-width:0.72000003;stroke-linecap:butt;stroke-linejoin:round;stroke-miterlimit:10;stroke-dasharray:none;stroke-opacity:1"
       d="m 51.84,111.48 584.48,0" /><path
       id="path384"
       style="fill:none;stroke:#525e66;stroke-width:0.72000003;stroke-linecap:butt;stroke-linejoin:round;stroke-miterlimit:10;stroke-dasharray:none;stroke-opacity:1"
       d="m 51.84,245.88 584.48,0" /><path
       id="path386"
       style="fill:none;stroke:#ff0000;stroke-width:2.27999997;stroke-linecap:butt;stroke-linejoin:round;stroke-miterlimit:10;stroke-dasharray:none;stroke-opacity:1"
       d="m 395.94,32.72 c 0,3.303 2.68,5.98 5.98,5.98 l 51.4,0 c 3.3,0 5.98,-2.677 5.98,-5.98 l 0,-23.9199 C 459.3,5.4974 456.62,2.82 453.32,2.82 l -51.4,0 c -3.3,0 -5.98,2.6774 -5.98,5.9801 l 0,23.9199 z" /><g
       id="g388"><g
         clip-path="url(#clipPath392)"
         id="g390"><text
           id="text396"
           style="font-variant:normal;font-weight:bold;font-size:20.04000092px;font-family:Corbel;-inkscape-font-specification:Corbel-Bold;writing-mode:lr-tb;fill:#000000;fill-opacity:1;fill-rule:nonzero;stroke:none"
           transform="matrix(1,0,0,-1,404.88,13.968)"><tspan
             id="tspan398"
             y="0"
             x="0 10.3206 14.44884 25.00992 29.03796">a = 1</tspan></text>
</g></g><g
       id="g400"><g
         clip-path="url(#clipPath404)"
         id="g402"><text
           id="text408"
           style="font-variant:normal;font-weight:normal;font-size:24.02400017px;font-family:Corbel;-inkscape-font-specification:Corbel;writing-mode:lr-tb;fill:#000000;fill-opacity:1;fill-rule:nonzero;stroke:none"
           transform="matrix(1,0,0,-1,161.33,262.66)"><tspan
             id="tspan410"
             y="0"
             x="0 13.33332 26.042015 34.090057 46.054008 57.825768 70.702629 75.507431">Thread 0</tspan></text>
</g></g><g
       id="g412"><g
         clip-path="url(#clipPath416)"
         id="g414"><text
           id="text420"
           style="font-variant:normal;font-weight:normal;font-size:24.02400017px;font-family:Corbel;-inkscape-font-specification:Corbel;writing-mode:lr-tb;fill:#000000;fill-opacity:1;fill-rule:nonzero;stroke:none"
           transform="matrix(1,0,0,-1,439.2,262.82)"><tspan
             id="tspan422"
             y="0"
             x="0 13.33332 26.042015 34.090057 46.054008 57.825768 70.702629 75.507431">Thread 1</tspan></text>
</g></g></g></svg>